<svg width="32" height="32" viewBox="0 0 32 32" fill="none" xmlns="http://www.w3.org/2000/svg">
<path d="M8.19551 22.8628L6.00084 25.0588L5.13951 24.1962C5.01433 24.071 4.84454 24.0007 4.66751 24.0007C4.49047 24.0007 4.32069 24.071 4.19551 24.1962C4.07033 24.3213 4 24.4911 4 24.6682C4 24.8452 4.07033 25.015 4.19551 25.1402L5.52884 26.4735C5.59077 26.5356 5.66434 26.5848 5.74533 26.6184C5.82632 26.6521 5.91315 26.6694 6.00084 26.6694C6.08853 26.6694 6.17536 26.6521 6.25635 26.6184C6.33735 26.5848 6.41091 26.5356 6.47284 26.4735L9.13951 23.8068C9.26469 23.6816 9.33502 23.5119 9.33502 23.3348C9.33502 23.1578 9.26469 22.988 9.13951 22.8628C9.01433 22.7376 8.84454 22.6673 8.66751 22.6673C8.49047 22.6673 8.32069 22.7376 8.19551 22.8628ZM8.19551 16.1962L6.00084 18.3922L5.13951 17.5295C5.07753 17.4675 5.00394 17.4183 4.92295 17.3848C4.84197 17.3513 4.75517 17.334 4.66751 17.334C4.57985 17.334 4.49305 17.3513 4.41206 17.3848C4.33108 17.4183 4.25749 17.4675 4.19551 17.5295C4.13352 17.5915 4.08436 17.6651 4.05081 17.746C4.01727 17.827 4 17.9138 4 18.0015C4 18.0892 4.01727 18.176 4.05081 18.2569C4.08436 18.3379 4.13352 18.4115 4.19551 18.4735L5.52884 19.8068C5.59077 19.8689 5.66434 19.9182 5.74533 19.9518C5.82632 19.9854 5.91315 20.0027 6.00084 20.0027C6.08853 20.0027 6.17536 19.9854 6.25635 19.9518C6.33735 19.9182 6.41091 19.8689 6.47284 19.8068L9.13951 17.1402C9.26469 17.015 9.33502 16.8452 9.33502 16.6682C9.33502 16.4911 9.26469 16.3213 9.13951 16.1962C9.01433 16.071 8.84454 16.0007 8.66751 16.0007C8.49047 16.0007 8.32069 16.071 8.19551 16.1962ZM11.3342 17.3348H16.6675C16.8443 17.3348 17.0139 17.2646 17.1389 17.1396C17.2639 17.0145 17.3342 16.845 17.3342 16.6682C17.3342 16.4913 17.2639 16.3218 17.1389 16.1968C17.0139 16.0717 16.8443 16.0015 16.6675 16.0015H11.3342C11.1574 16.0015 10.9878 16.0717 10.8628 16.1968C10.7377 16.3218 10.6675 16.4913 10.6675 16.6682C10.6675 16.845 10.7377 17.0145 10.8628 17.1396C10.9878 17.2646 11.1574 17.3348 11.3342 17.3348ZM8.19551 9.52949L6.00084 11.7255L5.13951 10.8628C5.07753 10.8008 5.00394 10.7517 4.92295 10.7181C4.84197 10.6846 4.75517 10.6673 4.66751 10.6673C4.57985 10.6673 4.49305 10.6846 4.41206 10.7181C4.33108 10.7517 4.25749 10.8008 4.19551 10.8628C4.13352 10.9248 4.08436 10.9984 4.05081 11.0794C4.01727 11.1604 4 11.2472 4 11.3348C4 11.4225 4.01727 11.5093 4.05081 11.5903C4.08436 11.6713 4.13352 11.7448 4.19551 11.8068L5.52884 13.1402C5.59077 13.2022 5.66434 13.2515 5.74533 13.2851C5.82632 13.3187 5.91315 13.336 6.00084 13.336C6.08853 13.336 6.17536 13.3187 6.25635 13.2851C6.33735 13.2515 6.41091 13.2022 6.47284 13.1402L9.13951 10.4735C9.26469 10.3483 9.33502 10.1785 9.33502 10.0015C9.33502 9.82446 9.26469 9.65468 9.13951 9.52949C9.01433 9.40431 8.84454 9.33398 8.66751 9.33398C8.49047 9.33398 8.32069 9.40431 8.19551 9.52949ZM11.3342 10.6682H22.0008C22.1777 10.6682 22.3472 10.5979 22.4722 10.4729C22.5973 10.3479 22.6675 10.1783 22.6675 10.0015C22.6675 9.82468 22.5973 9.65511 22.4722 9.53009C22.3472 9.40506 22.1777 9.33483 22.0008 9.33483H11.3342C11.1574 9.33483 10.9878 9.40506 10.8628 9.53009C10.7377 9.65511 10.6675 9.82468 10.6675 10.0015C10.6675 10.1783 10.7377 10.3479 10.8628 10.4729C10.9878 10.5979 11.1574 10.6682 11.3342 10.6682ZM11.3342 13.3348H22.0008C22.1777 13.3348 22.3472 13.2646 22.4722 13.1396C22.5973 13.0145 22.6675 12.845 22.6675 12.6682C22.6675 12.4913 22.5973 12.3218 22.4722 12.1968C22.3472 12.0717 22.1777 12.0015 22.0008 12.0015H11.3342C11.1574 12.0015 10.9878 12.0717 10.8628 12.1968C10.7377 12.3218 10.6675 12.4913 10.6675 12.6682C10.6675 12.845 10.7377 13.0145 10.8628 13.1396C10.9878 13.2646 11.1574 13.3348 11.3342 13.3348Z" fill="#FCFCFC"/>
<path d="M25.333 17.4666V6.58792C25.332 5.90186 25.0589 5.24421 24.5738 4.75909C24.0887 4.27398 23.4311 4.00098 22.745 3.99992H19.9997V3.03992C19.9965 2.58825 19.8157 2.15598 19.4963 1.8366C19.1769 1.51721 18.7447 1.33639 18.293 1.33325H8.37301C7.92134 1.33639 7.48907 1.51721 7.16969 1.8366C6.8503 2.15598 6.66948 2.58825 6.66634 3.03992V3.99992H3.91967C3.23386 4.00062 2.57635 4.27337 2.0914 4.75832C1.60646 5.24326 1.33371 5.90078 1.33301 6.58659V28.0799C1.33371 28.7657 1.60646 29.4232 2.0914 29.9082C2.57635 30.3931 3.23386 30.6659 3.91967 30.6666H23.9997C25.4431 30.6723 26.8484 30.2039 27.9997 29.3333C29.0279 28.5625 29.8115 27.5109 30.2561 26.3052C30.7007 25.0995 30.7873 23.791 30.5056 22.5372C30.2238 21.2834 29.5857 20.1377 28.668 19.2381C27.7503 18.3385 26.5922 17.7233 25.333 17.4666ZM7.99967 3.03992C8.00172 2.94155 8.04171 2.84777 8.11128 2.77819C8.18086 2.70862 8.27463 2.66863 8.37301 2.66659H18.293C18.3914 2.66863 18.4852 2.70862 18.5547 2.77819C18.6243 2.84777 18.6643 2.94155 18.6663 3.03992V4.95992C18.6643 5.05829 18.6243 5.15207 18.5547 5.22164C18.4852 5.29122 18.3914 5.33121 18.293 5.33325H8.37301C8.27463 5.33121 8.18086 5.29122 8.11128 5.22164C8.04171 5.15207 8.00172 5.05829 7.99967 4.95992V3.03992ZM3.91967 29.3333C3.75504 29.3334 3.59198 29.3011 3.43984 29.2382C3.2877 29.1753 3.14946 29.083 3.03304 28.9666C2.91662 28.8501 2.82431 28.7119 2.76139 28.5598C2.69846 28.4076 2.66617 28.2446 2.66634 28.0799V6.58659C2.66617 6.42195 2.69846 6.25889 2.76139 6.10675C2.82431 5.95461 2.91662 5.81637 3.03304 5.69995C3.14946 5.58354 3.2877 5.49122 3.43984 5.4283C3.59198 5.36538 3.75504 5.33308 3.91967 5.33325H6.71967C6.80113 5.71111 7.0097 6.0496 7.31059 6.29225C7.61147 6.5349 7.98647 6.66703 8.37301 6.66659H18.293C18.6795 6.66703 19.0545 6.5349 19.3554 6.29225C19.6563 6.0496 19.8649 5.71111 19.9463 5.33325H22.7463C23.0788 5.33396 23.3973 5.46641 23.6323 5.7016C23.8672 5.93678 23.9993 6.2555 23.9997 6.58792V17.3333C22.6005 17.3333 21.2367 17.7735 20.1016 18.5916C18.9665 19.4098 18.1176 20.5643 17.6751 21.8917C17.2326 23.2191 17.2191 24.6521 17.6363 25.9877C18.0535 27.3233 18.8803 28.4937 19.9997 29.3333H3.91967ZM23.9997 29.3333C22.9448 29.3333 21.9137 29.0205 21.0366 28.4344C20.1596 27.8484 19.476 27.0154 19.0723 26.0409C18.6686 25.0664 18.563 23.994 18.7688 22.9594C18.9746 21.9249 19.4826 20.9746 20.2284 20.2287C20.9743 19.4828 21.9246 18.9749 22.9592 18.7691C23.9938 18.5633 25.0661 18.6689 26.0407 19.0726C27.0152 19.4762 27.8481 20.1598 28.4342 21.0369C29.0202 21.9139 29.333 22.9451 29.333 23.9999C29.333 25.4144 28.7711 26.771 27.7709 27.7712C26.7707 28.7713 25.4142 29.3333 23.9997 29.3333Z" fill="#FCFCFC"/>
<path d="M24.667 23.7253V21.3346C24.667 21.1578 24.5968 20.9883 24.4717 20.8632C24.3467 20.7382 24.1771 20.668 24.0003 20.668C23.8235 20.668 23.6539 20.7382 23.5289 20.8632C23.4039 20.9883 23.3337 21.1578 23.3337 21.3346V24.0013C23.3335 24.0889 23.3506 24.1757 23.384 24.2567C23.4174 24.3377 23.4665 24.4113 23.5283 24.4733L24.8617 25.8066C24.9868 25.9318 25.1566 26.0021 25.3337 26.0021C25.5107 26.0021 25.6805 25.9318 25.8057 25.8066C25.9308 25.6815 26.0012 25.5117 26.0012 25.3346C26.0012 25.1576 25.9308 24.9878 25.8057 24.8626L24.667 23.7253ZM16.667 18.668H11.3337C11.1568 18.668 10.9873 18.7382 10.8623 18.8632C10.7372 18.9883 10.667 19.1578 10.667 19.3346C10.667 19.5114 10.7372 19.681 10.8623 19.806C10.9873 19.9311 11.1568 20.0013 11.3337 20.0013H16.667C16.8438 20.0013 17.0134 19.9311 17.1384 19.806C17.2634 19.681 17.3337 19.5114 17.3337 19.3346C17.3337 19.1578 17.2634 18.9883 17.1384 18.8632C17.0134 18.7382 16.8438 18.668 16.667 18.668ZM15.3337 25.3346H11.3337C11.1568 25.3346 10.9873 25.4049 10.8623 25.5299C10.7372 25.6549 10.667 25.8245 10.667 26.0013C10.667 26.1781 10.7372 26.3477 10.8623 26.4727C10.9873 26.5977 11.1568 26.668 11.3337 26.668H15.3337C15.5105 26.668 15.68 26.5977 15.8051 26.4727C15.9301 26.3477 16.0003 26.1781 16.0003 26.0013C16.0003 25.8245 15.9301 25.6549 15.8051 25.5299C15.68 25.4049 15.5105 25.3346 15.3337 25.3346ZM15.3337 22.668H11.3337C11.1568 22.668 10.9873 22.7382 10.8623 22.8632C10.7372 22.9883 10.667 23.1578 10.667 23.3346C10.667 23.5114 10.7372 23.681 10.8623 23.806C10.9873 23.9311 11.1568 24.0013 11.3337 24.0013H15.3337C15.5105 24.0013 15.68 23.9311 15.8051 23.806C15.9301 23.681 16.0003 23.5114 16.0003 23.3346C16.0003 23.1578 15.9301 22.9883 15.8051 22.8632C15.68 22.7382 15.5105 22.668 15.3337 22.668Z" fill="#FCFCFC"/>
</svg>
