<svg width="32" height="32" viewBox="0 0 32 32" fill="none" xmlns="http://www.w3.org/2000/svg">
<path d="M12.5 27.5006H4.5C4.1023 27.5002 3.721 27.342 3.43978 27.0608C3.15856 26.7796 3.0004 26.3983 3 26.0006V6.50055C3.0004 6.10285 3.15856 5.72155 3.43978 5.44033C3.721 5.15911 4.1023 5.00095 4.5 5.00055H6.5V6.00055C6.5004 6.39826 6.65856 6.77956 6.93978 7.06077C7.221 7.34199 7.6023 7.50016 8 7.50055H16C16.3977 7.50016 16.779 7.34199 17.0602 7.06077C17.3414 6.77956 17.4996 6.39826 17.5 6.00055V5.00055H19.5C19.8977 5.00095 20.279 5.15911 20.5602 5.44033C20.8414 5.72155 20.9996 6.10285 21 6.50055V13.5006C21 13.6332 21.0527 13.7603 21.1464 13.8541C21.2402 13.9479 21.3674 14.0006 21.5 14.0006C21.6326 14.0006 21.7598 13.9479 21.8536 13.8541C21.9473 13.7603 22 13.6332 22 13.5006V6.50055C21.9992 5.83776 21.7356 5.20233 21.2669 4.73366C20.7982 4.26499 20.1628 4.00135 19.5 4.00055H17.408C17.3053 3.7089 17.1148 3.45619 16.8627 3.27714C16.6106 3.09809 16.3092 3.00147 16 3.00055H14.45C14.3352 2.43541 14.0286 1.92732 13.5821 1.56236C13.1356 1.19741 12.5767 0.998047 12 0.998047C11.4233 0.998047 10.8644 1.19741 10.4179 1.56236C9.97136 1.92732 9.66476 2.43541 9.55 3.00055H8C7.69078 3.00147 7.38943 3.09809 7.13733 3.27714C6.88522 3.45619 6.69473 3.7089 6.592 4.00055H4.5C3.8372 4.00135 3.20178 4.26499 2.73311 4.73366C2.26444 5.20233 2.00079 5.83776 2 6.50055V26.0006C2.00079 26.6634 2.26444 27.2988 2.73311 27.7674C3.20178 28.2361 3.8372 28.4998 4.5 28.5006H12.5C12.6326 28.5006 12.7598 28.4479 12.8536 28.3541C12.9473 28.2603 13 28.1332 13 28.0006C13 27.8679 12.9473 27.7408 12.8536 27.647C12.7598 27.5532 12.6326 27.5006 12.5 27.5006ZM7.5 4.50055C7.5 4.36794 7.55268 4.24077 7.64645 4.147C7.74021 4.05323 7.86739 4.00055 8 4.00055H10C10.1326 4.00055 10.2598 3.94787 10.3536 3.85411C10.4473 3.76034 10.5 3.63316 10.5 3.50055C10.5 3.10273 10.658 2.7212 10.9393 2.43989C11.2206 2.15859 11.6022 2.00055 12 2.00055C12.3978 2.00055 12.7794 2.15859 13.0607 2.43989C13.342 2.7212 13.5 3.10273 13.5 3.50055C13.5 3.63316 13.5527 3.76034 13.6464 3.85411C13.7402 3.94787 13.8674 4.00055 14 4.00055H16C16.1326 4.00055 16.2598 4.05323 16.3536 4.147C16.4473 4.24077 16.5 4.36794 16.5 4.50055V6.00055C16.5 6.13316 16.4473 6.26034 16.3536 6.35411C16.2598 6.44787 16.1326 6.50055 16 6.50055H8C7.86739 6.50055 7.74021 6.44787 7.64645 6.35411C7.55268 6.26034 7.5 6.13316 7.5 6.00055V4.50055ZM9 10.0006C9 9.86794 8.94732 9.74077 8.85355 9.647C8.75979 9.55323 8.63261 9.50055 8.5 9.50055H5.5C5.36739 9.50055 5.24021 9.55323 5.14645 9.647C5.05268 9.74077 5 9.86794 5 10.0006V13.0006C5 13.1332 5.05268 13.2603 5.14645 13.3541C5.24021 13.4479 5.36739 13.5006 5.5 13.5006H8.5C8.63261 13.5006 8.75979 13.4479 8.85355 13.3541C8.94732 13.2603 9 13.1332 9 13.0006V10.0006ZM8 12.5006H6V10.5006H8V12.5006ZM9 16.0006C9 15.8679 8.94732 15.7408 8.85355 15.647C8.75979 15.5532 8.63261 15.5006 8.5 15.5006H5.5C5.36739 15.5006 5.24021 15.5532 5.14645 15.647C5.05268 15.7408 5 15.8679 5 16.0006V19.0006C5 19.1332 5.05268 19.2603 5.14645 19.3541C5.24021 19.4479 5.36739 19.5006 5.5 19.5006H8.5C8.63261 19.5006 8.75979 19.4479 8.85355 19.3541C8.94732 19.2603 9 19.1332 9 19.0006V16.0006ZM8 18.5006H6V16.5006H8V18.5006ZM8.5 21.5006H5.5C5.36739 21.5006 5.24021 21.5532 5.14645 21.647C5.05268 21.7408 5 21.8679 5 22.0006V25.0006C5 25.1332 5.05268 25.2603 5.14645 25.3541C5.24021 25.4479 5.36739 25.5006 5.5 25.5006H8.5C8.63261 25.5006 8.75979 25.4479 8.85355 25.3541C8.94732 25.2603 9 25.1332 9 25.0006V22.0006C9 21.8679 8.94732 21.7408 8.85355 21.647C8.75979 21.5532 8.63261 21.5006 8.5 21.5006ZM8 24.5006H6V22.5006H8V24.5006ZM19 10.0006C19 10.1332 18.9473 10.2603 18.8536 10.3541C18.7598 10.4479 18.6326 10.5006 18.5 10.5006H11C10.8674 10.5006 10.7402 10.4479 10.6464 10.3541C10.5527 10.2603 10.5 10.1332 10.5 10.0006C10.5 9.86794 10.5527 9.74077 10.6464 9.647C10.7402 9.55323 10.8674 9.50055 11 9.50055H18.5C18.6326 9.50055 18.7598 9.55323 18.8536 9.647C18.9473 9.74077 19 9.86794 19 10.0006ZM10.5 13.0006C10.5 12.8679 10.5527 12.7408 10.6464 12.647C10.7402 12.5532 10.8674 12.5006 11 12.5006H15.5C15.6326 12.5006 15.7598 12.5532 15.8536 12.647C15.9473 12.7408 16 12.8679 16 13.0006C16 13.1332 15.9473 13.2603 15.8536 13.3541C15.7598 13.4479 15.6326 13.5006 15.5 13.5006H11C10.8674 13.5006 10.7402 13.4479 10.6464 13.3541C10.5527 13.2603 10.5 13.1332 10.5 13.0006ZM18.5 16.5006H11C10.8674 16.5006 10.7402 16.4479 10.6464 16.3541C10.5527 16.2603 10.5 16.1332 10.5 16.0006C10.5 15.8679 10.5527 15.7408 10.6464 15.647C10.7402 15.5532 10.8674 15.5006 11 15.5006H18.5C18.6326 15.5006 18.7598 15.5532 18.8536 15.647C18.9473 15.7408 19 15.8679 19 16.0006C19 16.1332 18.9473 16.2603 18.8536 16.3541C18.7598 16.4479 18.6326 16.5006 18.5 16.5006ZM15.5 18.5006C15.6326 18.5006 15.7598 18.5532 15.8536 18.647C15.9473 18.7408 16 18.8679 16 19.0006C16 19.1332 15.9473 19.2603 15.8536 19.3541C15.7598 19.4479 15.6326 19.5006 15.5 19.5006H11C10.8674 19.5006 10.7402 19.4479 10.6464 19.3541C10.5527 19.2603 10.5 19.1332 10.5 19.0006C10.5 18.8679 10.5527 18.7408 10.6464 18.647C10.7402 18.5532 10.8674 18.5006 11 18.5006H15.5ZM13 22.0006C13 22.1332 12.9473 22.2603 12.8536 22.3541C12.7598 22.4479 12.6326 22.5006 12.5 22.5006H11C10.8674 22.5006 10.7402 22.4479 10.6464 22.3541C10.5527 22.2603 10.5 22.1332 10.5 22.0006C10.5 21.8679 10.5527 21.7408 10.6464 21.647C10.7402 21.5532 10.8674 21.5006 11 21.5006H12.5C12.6326 21.5006 12.7598 21.5532 12.8536 21.647C12.9473 21.7408 13 21.8679 13 22.0006ZM13 25.0006C13 25.1332 12.9473 25.2603 12.8536 25.3541C12.7598 25.4479 12.6326 25.5006 12.5 25.5006H11C10.8674 25.5006 10.7402 25.4479 10.6464 25.3541C10.5527 25.2603 10.5 25.1332 10.5 25.0006C10.5 24.8679 10.5527 24.7408 10.6464 24.647C10.7402 24.5532 10.8674 24.5006 11 24.5006H12.5C12.6326 24.5006 12.7598 24.5532 12.8536 24.647C12.9473 24.7408 13 24.8679 13 25.0006ZM29.207 21.0006L29.5 20.7076C29.8201 20.3874 29.9999 19.9533 29.9999 19.5006C29.9999 19.0478 29.8201 18.6137 29.5 18.2936L29.207 18.0006L29.707 17.5006C29.8944 17.313 29.9996 17.0587 29.9996 16.7936C29.9996 16.5284 29.8944 16.2741 29.707 16.0866L28.914 15.2936C28.7263 15.1064 28.472 15.0014 28.207 15.0014C27.942 15.0014 27.6877 15.1064 27.5 15.2936L27 15.7936L26.707 15.5006C26.3818 15.1902 25.9495 15.0171 25.5 15.0171C25.0505 15.0171 24.6182 15.1902 24.293 15.5006L24 15.7936L23.707 15.5006C23.3818 15.1902 22.9495 15.0171 22.5 15.0171C22.0505 15.0171 21.6182 15.1902 21.293 15.5006L21 15.7936C20.6799 16.1137 20.5001 16.5478 20.5001 17.0006C20.5001 17.4533 20.6799 17.8874 21 18.2076L22.793 20.0006L19 23.7936L17.207 22.0006C16.8818 21.6902 16.4495 21.5171 16 21.5171C15.5505 21.5171 15.1182 21.6902 14.793 22.0006L14.5 22.2936C14.1799 22.6137 14.0001 23.0478 14.0001 23.5006C14.0001 23.9533 14.1799 24.3874 14.5 24.7076L14.793 25.0006L14.5 25.2936C14.1799 25.6137 14.0001 26.0478 14.0001 26.5006C14.0001 26.9533 14.1799 27.3874 14.5 27.7076L14.793 28.0006L14.293 28.5006C14.1057 28.6881 14.0004 28.9424 14.0004 29.2076C14.0004 29.4727 14.1057 29.727 14.293 29.9146L15.086 30.7076C15.2737 30.8948 15.5279 30.9999 15.793 30.9999C16.0581 30.9999 16.3123 30.8948 16.5 30.7076L17 30.2076L17.293 30.5006C17.6131 30.8207 18.0473 31.0005 18.5 31.0005C18.9527 31.0005 19.3869 30.8207 19.707 30.5006L20 30.2076L20.293 30.5006C20.6131 30.8207 21.0473 31.0005 21.5 31.0005C21.9527 31.0005 22.3869 30.8207 22.707 30.5006L23 30.2076C23.3201 29.8874 23.4999 29.4533 23.4999 29.0006C23.4999 28.5478 23.3201 28.1137 23 27.7936L21.207 26.0006L25 22.2076L26.793 24.0006C27.1131 24.3207 27.5473 24.5005 28 24.5005C28.4527 24.5005 28.8869 24.3207 29.207 24.0006L29.5 23.7076C29.8201 23.3874 29.9999 22.9533 29.9999 22.5006C29.9999 22.0478 29.8201 21.6137 29.5 21.2936L29.207 21.0006ZM15.793 30.0006L15 29.2076L15.5 28.7076L16.293 29.5006L15.793 30.0006ZM19 29.7936C18.8652 29.9219 18.6862 29.9936 18.5 29.9936C18.3138 29.9936 18.1348 29.9219 18 29.7936L15.207 27.0006C15.0745 26.8679 15.0001 26.6881 15.0001 26.5006C15.0001 26.313 15.0745 26.1332 15.207 26.0006L15.5 25.7076L19.293 29.5006L19 29.7936ZM22.293 28.5006C22.4255 28.6332 22.4999 28.813 22.4999 29.0006C22.4999 29.1881 22.4255 29.3679 22.293 29.5006L22 29.7936C21.8652 29.9219 21.6862 29.9936 21.5 29.9936C21.3138 29.9936 21.1348 29.9219 21 29.7936L15.207 24.0006C15.0745 23.8679 15.0001 23.6881 15.0001 23.5006C15.0001 23.313 15.0745 23.1332 15.207 23.0006L15.5 22.7076C15.6327 22.575 15.8125 22.5006 16 22.5006C16.1875 22.5006 16.3673 22.575 16.5 22.7076L22.293 28.5006ZM20.5 25.2936L19.707 24.5006L23.5 20.7076L24.293 21.5006L20.5 25.2936ZM28.793 23.0006L28.5 23.2936C28.3652 23.4219 28.1862 23.4936 28 23.4936C27.8138 23.4936 27.6348 23.4219 27.5 23.2936L21.707 17.5006C21.5745 17.3679 21.5001 17.1881 21.5001 17.0006C21.5001 16.813 21.5745 16.6332 21.707 16.5006L22 16.2076C22.1327 16.075 22.3125 16.0006 22.5 16.0006C22.6875 16.0006 22.8673 16.075 23 16.2076L28.793 22.0006C28.9255 22.1332 28.9999 22.313 28.9999 22.5006C28.9999 22.6881 28.9255 22.8679 28.793 23.0006ZM28.793 20.0006L28.5 20.2936L24.707 16.5006L25 16.2076C25.1348 16.0792 25.3138 16.0076 25.5 16.0076C25.6862 16.0076 25.8652 16.0792 26 16.2076L28.793 19.0006C28.9255 19.1332 28.9999 19.313 28.9999 19.5006C28.9999 19.6881 28.9255 19.8679 28.793 20.0006ZM28.5 17.2936L27.707 16.5006L28.207 16.0006L29 16.7936L28.5 17.2936Z" fill="#FDFDFD"/>
</svg>
