<svg width="32" height="32" viewBox="0 0 32 32" fill="none" xmlns="http://www.w3.org/2000/svg">
<path d="M16 8.00004C14.4177 8.00004 12.871 8.46923 11.5554 9.34828C10.2398 10.2273 9.21447 11.4768 8.60896 12.9386C8.00346 14.4004 7.84504 16.0089 8.15372 17.5608C8.4624 19.1126 9.22433 20.5381 10.3431 21.6569C11.462 22.7757 12.8874 23.5376 14.4393 23.8463C15.9911 24.155 17.5997 23.9966 19.0615 23.3911C20.5233 22.7856 21.7727 21.7602 22.6518 20.4446C23.5308 19.129 24 17.5823 24 16C23.9976 13.879 23.154 11.8456 21.6542 10.3458C20.1544 8.84604 18.121 8.00242 16 8.00004ZM16 9.00004C17.1437 9.00042 18.2698 9.2811 19.2799 9.81752C20.29 10.3539 21.1532 11.1297 21.794 12.077L20.0525 13.083C19.5913 12.4386 18.9831 11.9135 18.2783 11.5512C17.5735 11.1889 16.7924 11 16 11C15.2076 11 14.4265 11.1889 13.7217 11.5512C13.0169 11.9135 12.4087 12.4386 11.9475 13.083L10.206 12.077C10.8468 11.1297 11.71 10.3539 12.7201 9.81752C13.7302 9.2811 14.8563 9.00042 16 9.00004ZM16 20C15.2089 20 14.4355 19.7654 13.7777 19.3259C13.1199 18.8864 12.6072 18.2617 12.3045 17.5308C12.0017 16.7999 11.9225 15.9956 12.0769 15.2197C12.2312 14.4438 12.6122 13.731 13.1716 13.1716C13.731 12.6122 14.4437 12.2312 15.2196 12.0769C15.9956 11.9226 16.7998 12.0018 17.5307 12.3045C18.2616 12.6073 18.8864 13.12 19.3259 13.7778C19.7654 14.4356 20 15.2089 20 16C19.9987 17.0605 19.5768 18.0771 18.827 18.827C18.0771 19.5769 17.0605 19.9987 16 20ZM9 16C9.00116 14.9413 9.24436 13.8969 9.711 12.9465L11.446 13.948C11.1185 14.6702 10.9679 15.4601 11.0066 16.2521C11.0453 17.0442 11.2721 17.8156 11.6684 18.5024C12.0647 19.1893 12.619 19.7718 13.2853 20.2017C13.9517 20.6316 14.7109 20.8966 15.5 20.9745V22.9745C13.7362 22.8473 12.0858 22.0576 10.8802 20.7639C9.67454 19.4702 9.00286 17.7684 9 16ZM16.5 22.975V20.975C17.2892 20.8972 18.0486 20.6323 18.715 20.2024C19.3815 19.7725 19.9359 19.1899 20.3322 18.503C20.7286 17.816 20.9555 17.0445 20.9941 16.2524C21.0328 15.4602 20.8821 14.6703 20.5545 13.948L22.2895 12.9465C22.7925 13.9739 23.0352 15.1092 22.9961 16.2525C22.9571 17.3957 22.6375 18.5118 22.0656 19.5025C21.4936 20.4932 20.6869 21.328 19.7163 21.9334C18.7458 22.5389 17.6412 22.8969 16.5 22.975ZM8 10.5V5.50004C8 5.36743 7.94732 5.24025 7.85355 5.14648C7.75979 5.05272 7.63261 5.00004 7.5 5.00004C7.36739 5.00004 7.24021 5.05272 7.14645 5.14648C7.05268 5.24025 7 5.36743 7 5.50004V9.50004H6V5.50004C6 5.36743 5.94732 5.24025 5.85355 5.14648C5.75979 5.05272 5.63261 5.00004 5.5 5.00004C5.36739 5.00004 5.24021 5.05272 5.14645 5.14648C5.05268 5.24025 5 5.36743 5 5.50004V9.50004H4V5.50004C4 5.36743 3.94732 5.24025 3.85355 5.14648C3.75979 5.05272 3.63261 5.00004 3.5 5.00004C3.36739 5.00004 3.24021 5.05272 3.14645 5.14648C3.05268 5.24025 3 5.36743 3 5.50004V9.50004H2V5.50004C2 5.36743 1.94732 5.24025 1.85355 5.14648C1.75979 5.05272 1.63261 5.00004 1.5 5.00004C1.36739 5.00004 1.24021 5.05272 1.14645 5.14648C1.05268 5.24025 1 5.36743 1 5.50004V10.5C1.00124 11.2119 1.21932 11.9065 1.62522 12.4913C2.03111 13.0761 2.60554 13.5234 3.272 13.7735L2.591 24.974C2.57519 25.2344 2.61283 25.4953 2.7016 25.7407C2.79037 25.986 2.92839 26.2106 3.10718 26.4006C3.28597 26.5906 3.50175 26.742 3.74123 26.8455C3.98071 26.949 4.23884 27.0024 4.49973 27.0024C4.76063 27.0025 5.01877 26.9491 5.25828 26.8457C5.49779 26.7422 5.7136 26.5909 5.89244 26.4009C6.07128 26.211 6.20937 25.9864 6.2982 25.7411C6.38704 25.4958 6.42474 25.235 6.409 24.9745L5.728 13.7735C6.39446 13.5234 6.96889 13.0761 7.37478 12.4913C7.78068 11.9065 7.99876 11.2119 8 10.5ZM5.411 25.0355C5.41917 25.1591 5.40167 25.2831 5.35959 25.3996C5.31751 25.5161 5.25177 25.6227 5.1665 25.7125C5.07935 25.8007 4.97556 25.8708 4.86116 25.9185C4.74675 25.9663 4.62399 25.9909 4.5 25.9909C4.37601 25.9909 4.25325 25.9663 4.13884 25.9185C4.02444 25.8708 3.92065 25.8007 3.8335 25.7125C3.7481 25.6226 3.68225 25.516 3.64008 25.3994C3.59791 25.2828 3.58035 25.1588 3.5885 25.035L4.261 13.988C4.3405 13.993 4.4195 14 4.5 14C4.5805 14 4.66 13.9935 4.739 13.988L5.411 25.0355ZM4.5 13C3.8372 12.9992 3.20178 12.7356 2.73311 12.2669C2.26444 11.7983 2.00079 11.1628 2 10.5H7C6.99921 11.1628 6.73556 11.7983 6.26689 12.2669C5.79822 12.7356 5.1628 12.9992 4.5 13ZM9.108 8.07404C9.06724 8.02253 9.03703 7.9635 9.0191 7.90032C9.00116 7.83713 8.99584 7.77104 9.00346 7.7058C9.01108 7.64056 9.03147 7.57746 9.06348 7.52011C9.09548 7.46276 9.13848 7.41227 9.19 7.37154C11.1245 5.83006 13.5265 4.99362 16 5.00004C18.5531 5.00139 21.0265 5.8893 22.9975 7.51204C23.0998 7.59644 23.1644 7.71803 23.1771 7.85006C23.1897 7.98208 23.1494 8.11373 23.065 8.21604C22.9806 8.31834 22.859 8.38293 22.727 8.39559C22.595 8.40825 22.4633 8.36794 22.361 8.28354C20.5694 6.80821 18.3209 6.00104 16 6.00004C13.7515 5.9944 11.5682 6.75503 9.81 8.15654C9.75851 8.19725 9.69949 8.22742 9.63633 8.24531C9.57317 8.2632 9.5071 8.26846 9.4419 8.2608C9.3767 8.25314 9.31365 8.2327 9.25636 8.20065C9.19907 8.16861 9.14865 8.12558 9.108 8.07404ZM24.549 22.1045C24.653 22.1867 24.7201 22.3068 24.7356 22.4385C24.751 22.5701 24.7136 22.7025 24.6315 22.8065C23.6041 24.1134 22.2934 25.17 20.7982 25.8964C19.3029 26.6229 17.6623 27.0004 15.9999 27.0003C14.3375 27.0003 12.6968 26.6227 11.2017 25.8962C9.70647 25.1696 8.3958 24.113 7.3685 22.806C7.28628 22.7019 7.24879 22.5694 7.26426 22.4377C7.27973 22.306 7.3469 22.1858 7.451 22.1035C7.5551 22.0213 7.68759 21.9838 7.81934 21.9993C7.95108 22.0148 8.07128 22.0819 8.1535 22.186C9.08711 23.3744 10.2784 24.3352 11.6376 24.9959C12.9968 25.6566 14.4883 26 15.9995 26.0001C17.5108 26.0002 19.0023 25.657 20.3615 24.9965C21.7208 24.3359 22.9122 23.3753 23.846 22.187C23.9284 22.083 24.0486 22.0159 24.1804 22.0004C24.3122 21.9849 24.4448 22.0224 24.549 22.1045ZM31 9.50004C31 7.01904 29.43 5.00004 27.5 5.00004C25.57 5.00004 24 7.01904 24 9.50004C24 11.4265 24.9485 13.069 26.275 13.71L25.591 24.974C25.5752 25.2344 25.6128 25.4953 25.7016 25.7407C25.7904 25.986 25.9284 26.2106 26.1072 26.4006C26.286 26.5906 26.5017 26.742 26.7412 26.8455C26.9807 26.949 27.2388 27.0024 27.4997 27.0024C27.7606 27.0025 28.0188 26.9491 28.2583 26.8457C28.4978 26.7422 28.7136 26.5909 28.8924 26.4009C29.0713 26.211 29.2094 25.9864 29.2982 25.7411C29.387 25.4958 29.4247 25.235 29.409 24.9745L28.7255 13.7095C30.0515 13.07 31 11.4265 31 9.50004ZM28.411 25.0355C28.4192 25.1591 28.4017 25.2831 28.3596 25.3996C28.3175 25.5161 28.2518 25.6227 28.1665 25.7125C28.0794 25.8007 27.9756 25.8708 27.8612 25.9185C27.7467 25.9663 27.624 25.9909 27.5 25.9909C27.376 25.9909 27.2533 25.9663 27.1388 25.9185C27.0244 25.8708 26.9206 25.8007 26.8335 25.7125C26.7481 25.6226 26.6822 25.516 26.6401 25.3994C26.5979 25.2828 26.5804 25.1588 26.5885 25.035L27.26 13.985C27.34 13.992 27.4195 14.0005 27.5005 14.0005C27.5815 14.0005 27.661 13.992 27.7405 13.985L28.411 25.0355ZM27.5 13C26.1215 13 25 11.43 25 9.50004C25 7.57004 26.1215 6.00004 27.5 6.00004C28.8785 6.00004 30 7.57004 30 9.50004C30 11.43 28.8785 13 27.5 13ZM17.8535 14.1465C17.9472 14.2403 17.9999 14.3675 17.9999 14.5C17.9999 14.6326 17.9472 14.7598 17.8535 14.8535L14.8535 17.8535C14.7592 17.9446 14.6329 17.995 14.5018 17.9939C14.3707 17.9927 14.2453 17.9401 14.1526 17.8474C14.0599 17.7547 14.0073 17.6293 14.0062 17.4982C14.005 17.3671 14.0554 17.2408 14.1465 17.1465L17.1465 14.1465C17.2403 14.0528 17.3674 14.0001 17.5 14.0001C17.6326 14.0001 17.7597 14.0528 17.8535 14.1465ZM14 14.5C14 14.4011 14.0293 14.3045 14.0843 14.2222C14.1392 14.14 14.2173 14.0759 14.3087 14.0381C14.4 14.0003 14.5006 13.9904 14.5975 14.0096C14.6945 14.0289 14.7836 14.0766 14.8536 14.1465C14.9235 14.2164 14.9711 14.3055 14.9904 14.4025C15.0097 14.4995 14.9998 14.6 14.9619 14.6914C14.9241 14.7827 14.86 14.8608 14.7778 14.9158C14.6956 14.9707 14.5989 15 14.5 15C14.3674 15 14.2402 14.9474 14.1464 14.8536C14.0527 14.7598 14 14.6326 14 14.5ZM18 17.5C18 17.5989 17.9707 17.6956 17.9157 17.7778C17.8608 17.86 17.7827 17.9241 17.6913 17.962C17.6 17.9998 17.4994 18.0097 17.4025 17.9904C17.3055 17.9711 17.2164 17.9235 17.1464 17.8536C17.0765 17.7837 17.0289 17.6946 17.0096 17.5976C16.9903 17.5006 17.0002 17.4001 17.0381 17.3087C17.0759 17.2173 17.14 17.1392 17.2222 17.0843C17.3044 17.0294 17.4011 17 17.5 17C17.6326 17 17.7598 17.0527 17.8536 17.1465C17.9473 17.2402 18 17.3674 18 17.5Z" fill="white"/>
</svg>
