<svg width="32" height="32" viewBox="0 0 32 32" fill="none" xmlns="http://www.w3.org/2000/svg">
<path d="M16.0007 16.9993C11.774 16.9993 8.33398 13.5593 8.33398 9.33268C8.33398 5.10602 11.774 1.66602 16.0007 1.66602C20.2273 1.66602 23.6673 5.10602 23.6673 9.33268C23.6673 13.5593 20.2273 16.9993 16.0007 16.9993ZM16.0007 3.66602C12.8807 3.66602 10.334 6.21268 10.334 9.33268C10.334 12.4527 12.8807 14.9993 16.0007 14.9993C19.1207 14.9993 21.6673 12.4527 21.6673 9.33268C21.6673 6.21268 19.1207 3.66602 16.0007 3.66602ZM21.094 30.3327C20.5873 30.3327 20.1073 30.146 19.7607 29.7993C19.3473 29.386 19.1607 28.786 19.254 28.1593L19.5073 26.3593C19.574 25.8927 19.854 25.346 20.1873 24.9993L24.9073 20.2793C26.8007 18.386 28.4673 19.466 29.2807 20.2793C29.974 20.9727 30.334 21.7193 30.334 22.466C30.334 23.226 29.9873 23.9327 29.2807 24.6393L24.5607 29.3593C24.2273 29.6927 23.6673 29.9727 23.2007 30.0393L21.4007 30.2927C21.294 30.3193 21.2007 30.3327 21.094 30.3327ZM27.0807 21.226C26.8407 21.226 26.6273 21.386 26.3207 21.6927L21.6007 26.4127C21.5467 26.4781 21.51 26.5561 21.494 26.6393L21.254 28.306L22.9207 28.066C22.974 28.0527 23.1073 27.986 23.1473 27.946L27.8673 23.226C28.0807 23.0127 28.334 22.706 28.334 22.466C28.334 22.266 28.174 21.986 27.8673 21.6927C27.5473 21.3727 27.3073 21.226 27.0807 21.226Z" fill="white"/>
<path d="M27.8935 25.6267C27.8002 25.6267 27.7069 25.6133 27.6269 25.5867C26.7569 25.3398 25.9646 24.8745 25.3252 24.235C24.6857 23.5956 24.2205 22.8033 23.9735 21.9333C23.8269 21.4 24.1335 20.8533 24.6669 20.7067C25.2002 20.56 25.7469 20.8667 25.8935 21.4C26.2002 22.4933 27.0669 23.36 28.1602 23.6667C28.3921 23.7319 28.5926 23.8788 28.7247 24.0802C28.8569 24.2816 28.9118 24.524 28.8793 24.7626C28.8468 25.0013 28.7292 25.2202 28.548 25.379C28.3669 25.5378 28.1344 25.6257 27.8935 25.6267ZM4.54688 30.3333C4.00021 30.3333 3.54688 29.88 3.54688 29.3333C3.54688 23.64 9.13354 19 16.0002 19C17.4535 19 18.8935 19.2133 20.2402 19.6133C20.7735 19.7733 21.0669 20.3333 20.9069 20.8533C20.7469 21.3867 20.1869 21.68 19.6669 21.52C18.4935 21.1733 17.2669 20.9867 16.0002 20.9867C10.2402 20.9867 5.54687 24.72 5.54687 29.32C5.54687 29.88 5.09354 30.3333 4.54688 30.3333Z" fill="white"/>
</svg>
