<svg width="19" height="19" viewBox="0 0 19 19" fill="none" xmlns="http://www.w3.org/2000/svg">
<path fill-rule="evenodd" clip-rule="evenodd" d="M11.5833 0.325141C10.2235 -0.0447847 8.79664 -0.0964719 7.41356 0.174088C6.03048 0.444649 4.72831 1.03018 3.60807 1.88527C2.48783 2.74036 1.57963 3.84202 0.953912 5.1048C0.328196 6.36757 0.00178675 7.75751 3.3284e-06 9.16681C-0.00111169 10.4753 0.277933 11.7689 0.818377 12.9606C1.35882 14.1523 2.14814 15.2145 3.13326 16.0758C4.11838 16.937 5.27648 17.5774 6.52969 17.9538C7.7829 18.3302 9.10218 18.434 10.3988 18.2581C11.6955 18.0822 12.9394 17.6308 14.0471 16.9341C15.1547 16.2374 16.1004 15.3117 16.8205 14.2191C17.5406 13.1266 18.0184 11.8925 18.2219 10.5999C18.4253 9.30727 18.3497 7.98608 18 6.72514C17.55 7.05847 17.0333 7.31681 16.475 7.47514C16.7263 8.57459 16.727 9.71651 16.477 10.8163C16.2271 11.916 15.7328 12.9454 15.0309 13.8282C14.329 14.711 13.4375 15.4245 12.4223 15.9159C11.4072 16.4073 10.2945 16.6639 9.16667 16.6668C8.11259 16.6642 7.0709 16.4394 6.10953 16.0071C5.14817 15.5748 4.28872 14.9448 3.58724 14.158C2.88576 13.3712 2.358 12.4454 2.03838 11.441C1.71877 10.4365 1.61447 9.37595 1.7323 8.32847C1.85012 7.28099 2.18742 6.27012 2.72221 5.36177C3.25699 4.45342 3.97723 3.66799 4.83597 3.05672C5.69472 2.44545 6.67267 2.02206 7.70604 1.81416C8.73942 1.60626 9.80502 1.61852 10.8333 1.85014C10.9917 1.29181 11.25 0.775141 11.5833 0.325141Z" fill="white"/>
<path d="M18.333 3.05833C18.333 3.86945 18.0108 4.64735 17.4372 5.2209C16.8637 5.79445 16.0858 6.11667 15.2747 6.11667C14.4636 6.11667 13.6857 5.79445 13.1121 5.2209C12.5386 4.64735 12.2163 3.86945 12.2163 3.05833C12.2163 2.24721 12.5386 1.46931 13.1121 0.895765C13.6857 0.322216 14.4636 0 15.2747 0C16.0858 0 16.8637 0.322216 17.4372 0.895765C18.0108 1.46931 18.333 2.24721 18.333 3.05833ZM9.99967 8.825V4.16667H8.33301V9.50833L11.9163 13.0917L13.0913 11.9083L10.008 8.825H9.99967Z" fill="white"/>
</svg>
